 <svg version="1.0" xmlns="http://www.w3.org/2000/svg"  width="300.000000pt" height="300.000000pt" viewBox="0 0 300.000000 300.000000"  preserveAspectRatio="xMidYMid meet">  <g transform="translate(0.000000,300.000000) scale(0.100000,-0.100000)" fill="#FFFFFF" stroke="none"> <path d="M1320 1979 c-123 -75 -247 -192 -405 -381 -49 -59 -91 -105 -93 -103 -2 2 10 41 27 87 39 101 49 159 29 175 -33 28 -195 -83 -332 -226 -38 -39 -70 -70 -71 -69 -2 2 20 70 47 153 50 148 66 243 42 252 -7 2 -18 -24 -28 -64 -23 -95 -68 -232 -116 -354 -22 -56 -40 -109 -40 -116 0 -31 30 -9 60 43 35 63 165 203 255 274 71 56 158 105 163 91 2 -5 -22 -76 -52 -157 -31 -81 -56 -155 -56 -165 0 -28 21 -34 39 -12 9 11 58 75 110 142 51 67 126 156 165 198 120 129 284 249 308 225 15 -15 -6 -96 -63 -245 -146 -374 -183 -498 -177 -593 3 -44 10 -72 24 -91 23 -30 69 -52 81 -38 5 4 2 10 -4 12 -103 37 -79 205 88 626 71 180 89 238 89 292 0 67 -29 81 -90 44z m-513 -504 c0 -8 -6 -16 -14 -19 -11 -4 -11 -1 -3 14 13 24 17 25 17 5z"/> <path d="M2039 1900 c-79 -42 -187 -190 -260 -356 -29 -65 -34 -72 -51 -63 -15 8 -32 6 -68 -10 -64 -28 -113 -27 -140 1 -23 25 -40 16 -23 -11 10 -16 7 -27 -17 -65 -40 -63 -71 -60 -35 4 18 32 19 50 1 50 -37 0 -61 -85 -32 -109 22 -18 51 1 82 54 25 43 28 45 74 45 27 0 56 3 65 7 15 5 16 3 6 -15 -13 -25 -14 -81 -2 -101 5 -8 19 -12 33 -9 25 5 25 4 21 -66 -4 -80 10 -119 44 -124 17 -3 33 12 70 59 79 104 112 137 183 184 74 50 80 52 80 31 0 -24 18 -28 46 -9 26 17 26 17 20 -4 -8 -24 2 -53 18 -53 6 0 41 20 78 45 36 24 77 47 91 50 22 6 26 3 29 -21 3 -26 -2 -31 -62 -60 -86 -41 -150 -109 -150 -160 0 -50 44 -94 95 -94 112 0 187 105 169 239 l-6 47 88 27 c49 15 101 27 116 27 15 0 30 5 33 11 10 15 -73 2 -165 -27 -41 -13 -75 -22 -76 -21 0 1 -6 17 -12 36 -9 26 -9 43 0 73 10 33 9 41 -5 55 -14 14 -18 14 -33 3 -12 -11 -15 -26 -12 -66 4 -50 4 -51 -28 -63 -18 -7 -56 -28 -85 -47 -28 -20 -53 -33 -56 -31 -2 3 1 24 8 46 7 23 9 44 5 48 -3 4 -22 -9 -41 -27 -41 -40 -54 -34 -31 14 20 42 20 46 1 46 -8 0 -21 -13 -29 -29 -9 -16 -39 -42 -70 -60 -75 -42 -118 -82 -187 -173 -33 -43 -66 -78 -74 -78 -24 0 -28 63 -11 141 21 92 28 103 68 119 119 48 254 186 319 324 71 152 34 227 -82 166z m101 -51 c0 -113 -165 -332 -309 -408 -62 -33 -63 -33 -56 -10 18 54 97 213 139 279 104 160 226 235 226 139z m232 -324 c-6 -34 -12 -32 -12 6 0 16 4 28 9 25 4 -3 6 -17 3 -31z m-638 -64 c3 -5 -1 -29 -10 -55 -17 -48 -51 -83 -67 -67 -12 12 8 72 34 105 21 27 34 32 43 17z m630 -133 c11 -83 -19 -154 -77 -182 -47 -21 -83 -20 -107 4 -32 32 -26 75 18 120 31 34 132 99 153 100 4 0 9 -19 13 -42z"/> </g> </svg>
